<svg width="198" height="32" fill="none" xmlns="http://www.w3.org/2000/svg"><g id="Logo"><g id="CheapBuild" fill="#54565C"><path d="M132.3 18.48c0 1.351-.349 2.488-1.046 3.412-.697.9-1.642 1.588-2.834 2.06-1.17.474-2.452.71-3.847.71H113V.676h12.822c1.124 0 2.092.304 2.901.912a5.54 5.54 0 0 1 1.89 2.297 6.577 6.577 0 0 1-.202 6.182c-.585 1.037-1.44 1.802-2.565 2.298 1.372.405 2.452 1.137 3.239 2.196.81 1.058 1.215 2.365 1.215 3.919Zm-4.69-.879c0-.608-.124-1.148-.371-1.621a2.81 2.81 0 0 0-1.012-1.149 2.357 2.357 0 0 0-1.418-.44h-7.153v6.318h6.917c.563 0 1.069-.135 1.519-.405a3.204 3.204 0 0 0 1.113-1.149 3.08 3.08 0 0 0 .405-1.554Zm-9.954-12.939v6.048h6.209c.517 0 .989-.124 1.417-.372a2.666 2.666 0 0 0 1.012-1.047c.27-.45.405-.991.405-1.622 0-.608-.124-1.137-.371-1.588-.225-.45-.54-.8-.945-1.047a2.365 2.365 0 0 0-1.316-.372h-6.411ZM136.273 18.04V6.96h4.521v10.1c0 1.352.247 2.377.742 3.075.495.676 1.226 1.014 2.193 1.014a4.59 4.59 0 0 0 1.721-.338 4.962 4.962 0 0 0 1.586-1.081c.495-.473.911-1.07 1.249-1.79V6.96h4.521v12.635c0 .473.079.81.236 1.013.18.203.461.327.844.372v3.682c-.45.068-.833.113-1.148.135a5.343 5.343 0 0 1-.809.068c-.81 0-1.474-.18-1.991-.54-.495-.384-.787-.902-.877-1.555l-.102-1.419a7.874 7.874 0 0 1-3.036 2.737c-1.238.608-2.598.912-4.083.912-1.822 0-3.206-.586-4.15-1.757-.945-1.194-1.417-2.928-1.417-5.202ZM158.311 24.662V6.96h4.522v17.703h-4.522Zm0-20.169V0h4.522v4.493h-4.522ZM167.89 0h4.521v18.986c0 .811.135 1.363.405 1.656.27.27.641.405 1.114.405.359 0 .731-.045 1.113-.135.382-.09.72-.203 1.012-.338l.608 3.446c-.608.293-1.316.518-2.126.676-.81.158-1.541.236-2.193.236-1.417 0-2.52-.371-3.307-1.114-.765-.766-1.147-1.847-1.147-3.244V0ZM178.565 15.81c0-1.71.337-3.254 1.012-4.628.675-1.396 1.609-2.5 2.801-3.31 1.192-.811 2.553-1.217 4.082-1.217 1.305 0 2.475.327 3.51.98 1.057.63 1.878 1.442 2.463 2.433V0h4.521v19.595c0 .473.079.81.236 1.013.158.203.428.327.81.372v3.682c-.787.158-1.428.237-1.923.237-.81 0-1.485-.203-2.025-.608a2.231 2.231 0 0 1-.877-1.588l-.067-1.115a6.567 6.567 0 0 1-2.666 2.534 7.306 7.306 0 0 1-3.475.878c-1.215 0-2.34-.236-3.375-.71a8.434 8.434 0 0 1-2.665-1.959 9.476 9.476 0 0 1-1.755-2.905 10.602 10.602 0 0 1-.607-3.615Zm13.868 2.366v-4.223a4.77 4.77 0 0 0-1.08-1.757 5.711 5.711 0 0 0-1.653-1.216c-.608-.316-1.215-.473-1.822-.473-.698 0-1.328.146-1.89.439a5.008 5.008 0 0 0-1.485 1.182 5.57 5.57 0 0 0-.944 1.723 6.904 6.904 0 0 0-.304 2.061c0 .72.112 1.408.337 2.061a5.077 5.077 0 0 0 2.599 2.77c.607.27 1.259.406 1.957.406.427 0 .854-.068 1.282-.203.45-.158.866-.36 1.248-.608.405-.27.754-.586 1.046-.946.315-.383.551-.788.709-1.216Z"/></g><g id="CheapBuild_2" fill="#2196F3"><path d="M0 12.556c0-1.47.26-2.907.78-4.31a12.564 12.564 0 0 1 2.34-3.868 10.912 10.912 0 0 1 3.73-2.783C8.32.894 9.995.543 11.87.543c2.216 0 4.127.486 5.732 1.46 1.628.972 2.838 2.239 3.629 3.8L17.636 8.28c-.407-.905-.938-1.618-1.594-2.138-.656-.543-1.357-.916-2.103-1.12a7.571 7.571 0 0 0-2.204-.34c-1.176 0-2.205.238-3.087.714a6.906 6.906 0 0 0-2.17 1.866A8.202 8.202 0 0 0 5.155 9.84c-.271.95-.407 1.9-.407 2.85 0 1.064.17 2.093.509 3.088.339.973.814 1.844 1.424 2.613a7.482 7.482 0 0 0 2.239 1.799 6.49 6.49 0 0 0 2.883.645c.746 0 1.503-.125 2.272-.374a6.444 6.444 0 0 0 2.137-1.187c.655-.543 1.164-1.245 1.526-2.104l3.832 2.206c-.475 1.199-1.255 2.216-2.34 3.053a11.413 11.413 0 0 1-3.595 1.9c-1.334.43-2.657.646-3.968.646-1.719 0-3.29-.351-4.714-1.052a12.359 12.359 0 0 1-3.697-2.85 14.42 14.42 0 0 1-2.408-4.005A12.662 12.662 0 0 1 0 12.556ZM41.802 24.772h-4.544v-9.977c0-1.38-.272-2.409-.814-3.088-.52-.678-1.244-1.018-2.171-1.018-.543 0-1.12.159-1.73.475a5.72 5.72 0 0 0-1.662 1.324 5.208 5.208 0 0 0-1.05 1.9v10.384h-4.546V0h4.545v10.282a7.004 7.004 0 0 1 2.68-2.647 7.436 7.436 0 0 1 3.696-.95c1.153 0 2.092.204 2.815.61a4.271 4.271 0 0 1 1.696 1.596c.407.656.69 1.402.848 2.24.158.814.237 1.662.237 2.544v11.097ZM55.013 25.111c-1.425 0-2.713-.237-3.866-.712-1.154-.498-2.137-1.165-2.951-2.002a9.554 9.554 0 0 1-1.9-2.919 9.588 9.588 0 0 1-.644-3.495c0-1.697.373-3.246 1.12-4.649a8.76 8.76 0 0 1 3.255-3.36c1.425-.86 3.098-1.289 5.02-1.289 1.944 0 3.606.43 4.985 1.29 1.38.837 2.43 1.956 3.154 3.359a9.27 9.27 0 0 1 1.12 4.48c0 .27-.012.554-.034.848-.023.271-.046.497-.068.678H50.468c.09.905.35 1.697.78 2.376a4.657 4.657 0 0 0 1.696 1.56c.7.34 1.447.51 2.238.51.905 0 1.753-.215 2.544-.645.814-.452 1.368-1.04 1.662-1.764l3.9 1.085c-.43.905-1.051 1.708-1.865 2.41-.792.701-1.73 1.255-2.815 1.663-1.085.384-2.284.576-3.595.576Zm-4.647-10.655h9.293c-.09-.905-.35-1.685-.78-2.341a4.15 4.15 0 0 0-1.628-1.561c-.678-.385-1.435-.577-2.272-.577a4.46 4.46 0 0 0-2.239.577 4.473 4.473 0 0 0-1.628 1.56c-.406.657-.655 1.437-.746 2.342ZM66.87 19.512c0-1.154.317-2.16.95-3.02.656-.882 1.56-1.56 2.714-2.036 1.153-.475 2.475-.713 3.968-.713.746 0 1.503.057 2.272.17.769.113 1.436.294 2.001.543v-.95c0-1.131-.34-2.002-1.018-2.613-.655-.61-1.639-.916-2.95-.916-.972 0-1.9.17-2.781.509-.882.339-1.809.837-2.781 1.493l-1.459-2.986c1.176-.77 2.374-1.346 3.596-1.731a13.125 13.125 0 0 1 3.9-.577c2.532 0 4.5.633 5.901 1.9 1.424 1.267 2.137 3.077 2.137 5.43v5.667c0 .475.079.814.237 1.018.181.204.464.328.848.373v3.699c-.407.068-.78.124-1.12.17a5.889 5.889 0 0 1-.813.067c-.905 0-1.594-.203-2.07-.61a2.629 2.629 0 0 1-.847-1.493l-.102-.917a7.77 7.77 0 0 1-2.883 2.308c-1.153.543-2.328.814-3.527.814-1.175 0-2.238-.237-3.188-.712-.927-.498-1.662-1.165-2.204-2.002-.52-.86-.78-1.821-.78-2.885Zm11.057.916a4.78 4.78 0 0 0 .61-.814c.159-.271.238-.52.238-.747V17.07a8.417 8.417 0 0 0-1.764-.51 8.589 8.589 0 0 0-1.797-.203c-1.176 0-2.148.26-2.917.78-.746.498-1.119 1.166-1.119 2.003 0 .452.124.882.373 1.29.249.407.61.735 1.085.984.475.248 1.04.373 1.696.373.678 0 1.345-.125 2.001-.373.656-.272 1.187-.6 1.594-.985ZM99.233 25.111c-1.379 0-2.6-.305-3.663-.916a6.764 6.764 0 0 1-2.441-2.545V32h-4.545V6.99h3.968v3.054a7.392 7.392 0 0 1 2.578-2.443c1.04-.61 2.227-.916 3.56-.916 1.2 0 2.296.238 3.291.713a7.89 7.89 0 0 1 2.645 2.002 9 9 0 0 1 1.73 2.918c.429 1.086.644 2.262.644 3.53 0 1.719-.339 3.28-1.017 4.682-.656 1.403-1.572 2.523-2.748 3.36-1.153.814-2.487 1.221-4.002 1.221Zm-1.526-3.868c.701 0 1.334-.147 1.9-.441a4.62 4.62 0 0 0 1.458-1.188 5.19 5.19 0 0 0 .949-1.73c.227-.657.34-1.335.34-2.037a5.63 5.63 0 0 0-.373-2.07 4.666 4.666 0 0 0-1.018-1.662 4.724 4.724 0 0 0-1.594-1.154 4.554 4.554 0 0 0-1.933-.407c-.43 0-.87.079-1.323.237-.43.136-.848.34-1.255.61a5.455 5.455 0 0 0-1.085.951 3.581 3.581 0 0 0-.644 1.188v4.174a6.937 6.937 0 0 0 1.085 1.798 5.546 5.546 0 0 0 1.628 1.29c.61.294 1.232.44 1.865.44Z"/></g></g></svg>