<svg width="198" height="32" viewBox="0 0 198 32" fill="none" xmlns="http://www.w3.org/2000/svg">
<g id="Logo">
<g id="CheapBuild">
<path d="M132.3 18.4797C132.3 19.8311 131.951 20.9685 131.254 21.8919C130.557 22.7928 129.612 23.4797 128.42 23.9527C127.25 24.4257 125.968 24.6622 124.573 24.6622H113V0.675675H125.822C126.946 0.675675 127.914 0.979729 128.723 1.58784C129.556 2.17342 130.186 2.93919 130.613 3.88514C131.063 4.80856 131.288 5.77703 131.288 6.79054C131.288 7.93919 130.995 9.03153 130.411 10.0676C129.826 11.1036 128.971 11.8694 127.846 12.3649C129.218 12.7703 130.298 13.5022 131.085 14.5608C131.895 15.6194 132.3 16.9257 132.3 18.4797ZM127.61 17.6014C127.61 16.9932 127.486 16.4527 127.239 15.9797C126.991 15.4842 126.654 15.1013 126.227 14.8311C125.822 14.5383 125.349 14.3919 124.809 14.3919H117.656V20.7095H124.573C125.136 20.7095 125.642 20.5743 126.092 20.3041C126.564 20.0113 126.935 19.6284 127.205 19.1554C127.475 18.6824 127.61 18.1644 127.61 17.6014ZM117.656 4.66216V10.7095H123.865C124.382 10.7095 124.854 10.5856 125.282 10.3378C125.709 10.0901 126.047 9.74099 126.294 9.29054C126.564 8.84009 126.699 8.29955 126.699 7.66892C126.699 7.06081 126.575 6.53153 126.328 6.08108C126.103 5.63063 125.788 5.28153 125.383 5.03378C125.001 4.78604 124.562 4.66216 124.067 4.66216H117.656Z" fill="#54565C"/>
<path d="M136.273 18.0405V6.95946H140.794V17.0608C140.794 18.4122 141.041 19.4369 141.536 20.1351C142.031 20.8108 142.762 21.1486 143.729 21.1486C144.314 21.1486 144.888 21.036 145.45 20.8108C146.035 20.5631 146.564 20.2027 147.036 19.7297C147.531 19.2568 147.947 18.6599 148.285 17.9392V6.95946H152.806V19.5946C152.806 20.0676 152.885 20.4054 153.042 20.6081C153.222 20.8108 153.503 20.9347 153.886 20.9797V24.6622C153.436 24.7297 153.053 24.7748 152.738 24.7973C152.446 24.8423 152.176 24.8649 151.929 24.8649C151.119 24.8649 150.455 24.6847 149.938 24.3243C149.443 23.9414 149.151 23.4234 149.061 22.7703L148.959 21.3514C148.172 22.545 147.16 23.4572 145.923 24.0878C144.685 24.6959 143.325 25 141.84 25C140.018 25 138.634 24.4144 137.69 23.2432C136.745 22.0495 136.273 20.3153 136.273 18.0405Z" fill="#54565C"/>
<path d="M158.311 24.6622V6.95946H162.833V24.6622H158.311ZM158.311 4.49324V0H162.833V4.49324H158.311Z" fill="#54565C"/>
<path d="M167.89 0H172.411V18.9865C172.411 19.7973 172.546 20.3491 172.816 20.6419C173.086 20.9122 173.457 21.0473 173.93 21.0473C174.289 21.0473 174.661 21.0023 175.043 20.9122C175.425 20.8221 175.763 20.7095 176.055 20.5743L176.663 24.0203C176.055 24.3131 175.347 24.5383 174.537 24.6959C173.727 24.8536 172.996 24.9324 172.344 24.9324C170.927 24.9324 169.824 24.5608 169.037 23.8176C168.272 23.0518 167.89 21.9707 167.89 20.5743V0Z" fill="#54565C"/>
<path d="M178.565 15.8108C178.565 14.0991 178.902 12.5563 179.577 11.1824C180.252 9.78603 181.186 8.68243 182.378 7.87162C183.57 7.06081 184.931 6.6554 186.46 6.6554C187.765 6.6554 188.935 6.98198 189.97 7.63513C191.027 8.26577 191.848 9.07658 192.433 10.0676V0H196.954V19.5946C196.954 20.0676 197.033 20.4054 197.19 20.6081C197.348 20.8108 197.618 20.9347 198 20.9797V24.6622C197.213 24.8198 196.572 24.8986 196.077 24.8986C195.267 24.8986 194.592 24.6959 194.052 24.2905C193.535 23.8851 193.242 23.3559 193.175 22.7027L193.108 21.5878C192.455 22.6914 191.567 23.536 190.442 24.1216C189.34 24.7072 188.181 25 186.967 25C185.752 25 184.627 24.7635 183.592 24.2905C182.58 23.8176 181.692 23.1644 180.927 22.3311C180.185 21.4977 179.6 20.5293 179.172 19.4257C178.767 18.2995 178.565 17.0946 178.565 15.8108ZM192.433 18.1757V13.9527C192.208 13.2995 191.848 12.714 191.353 12.1959C190.858 11.6779 190.307 11.2725 189.7 10.9797C189.092 10.6644 188.485 10.5068 187.878 10.5068C187.18 10.5068 186.55 10.6532 185.988 10.9459C185.426 11.2387 184.931 11.6329 184.503 12.1284C184.099 12.6239 183.784 13.1982 183.559 13.8513C183.356 14.5045 183.255 15.1914 183.255 15.9122C183.255 16.6329 183.367 17.3198 183.592 17.973C183.84 18.6036 184.189 19.1554 184.638 19.6284C185.088 20.1013 185.606 20.473 186.191 20.7432C186.798 21.0135 187.45 21.1486 188.148 21.1486C188.575 21.1486 189.002 21.0811 189.43 20.9459C189.88 20.7883 190.296 20.5856 190.678 20.3378C191.083 20.0676 191.432 19.7523 191.724 19.3919C192.039 19.009 192.275 18.6036 192.433 18.1757Z" fill="#54565C"/>
</g>
<g id="CheapBuild_2">
<path d="M0 12.5557C0 11.0852 0.260018 9.64864 0.780053 8.24602C1.3227 6.82078 2.10275 5.53128 3.12021 4.37752C4.13767 3.20113 5.38123 2.27359 6.8509 1.59491C8.32056 0.893602 9.99372 0.542947 11.8704 0.542947C14.0862 0.542947 15.9967 1.02934 17.6021 2.00212C19.23 2.9749 20.4396 4.24178 21.231 5.80276L17.636 8.27996C17.229 7.37504 16.6977 6.66242 16.042 6.1421C15.3863 5.59915 14.6853 5.22587 13.9392 5.02227C13.1931 4.79604 12.4582 4.68293 11.7347 4.68293C10.559 4.68293 9.53021 4.92047 8.64841 5.39555C7.78922 5.87063 7.0657 6.49275 6.47783 7.26193C5.88997 8.03111 5.44907 8.89077 5.15513 9.84093C4.88381 10.7911 4.74815 11.7413 4.74815 12.6914C4.74815 13.7547 4.91772 14.784 5.25688 15.7794C5.59603 16.7522 6.07085 17.6232 6.68132 18.3924C7.31441 19.1389 8.06055 19.7384 8.91973 20.1909C9.80153 20.6207 10.7625 20.8356 11.8025 20.8356C12.5487 20.8356 13.3061 20.7112 14.0749 20.4624C14.8436 20.2135 15.5558 19.8176 16.2115 19.2747C16.8672 18.7317 17.376 18.0304 17.7377 17.1707L21.5702 19.3765C21.0953 20.5755 20.3153 21.5935 19.23 22.4305C18.1673 23.2676 16.969 23.901 15.635 24.3309C14.301 24.7607 12.9783 24.9756 11.6669 24.9756C9.9485 24.9756 8.37709 24.625 6.95265 23.9236C5.5282 23.1997 4.29594 22.2496 3.25587 21.0732C2.23841 19.8742 1.43575 18.5394 0.847884 17.0689C0.282628 15.5758 0 14.0714 0 12.5557Z" fill="#2196F3"/>
<path d="M41.8022 24.772H37.2576V14.7953C37.2576 13.4153 36.9863 12.386 36.4436 11.7073C35.9236 11.0286 35.2001 10.6893 34.273 10.6893C33.7304 10.6893 33.1538 10.8476 32.5434 11.1644C31.9329 11.4811 31.3789 11.9222 30.8815 12.4878C30.4067 13.0308 30.0562 13.6642 29.8301 14.3881V24.772H25.2855V0H29.8301V10.2821C30.4858 9.15094 31.3789 8.26865 32.5094 7.63521C33.64 7.00177 34.8722 6.68505 36.2062 6.68505C37.3593 6.68505 38.2977 6.88865 39.0212 7.29586C39.7447 7.68045 40.31 8.21209 40.717 8.89077C41.1239 9.54684 41.4066 10.2934 41.5648 11.1304C41.7231 11.9449 41.8022 12.7932 41.8022 13.6755V24.772Z" fill="#2196F3"/>
<path d="M55.0128 25.1113C53.5884 25.1113 52.2996 24.8738 51.1465 24.3987C49.9933 23.901 49.0098 23.2337 48.1958 22.3966C47.3819 21.5369 46.7488 20.5642 46.2966 19.4783C45.867 18.3697 45.6522 17.2047 45.6522 15.983C45.6522 14.2863 46.0252 12.7367 46.7714 11.334C47.5401 9.93142 48.6254 8.81159 50.0272 7.97455C51.4517 7.11488 53.1249 6.68505 55.0467 6.68505C56.9912 6.68505 58.6531 7.11488 60.0323 7.97455C61.4115 8.81159 62.4629 9.93142 63.1864 11.334C63.9325 12.714 64.3056 14.2071 64.3056 15.8134C64.3056 16.0848 64.2943 16.3676 64.2717 16.6617C64.2491 16.9332 64.2265 17.1594 64.2039 17.3404H50.4681C50.5586 18.2453 50.8186 19.0371 51.2482 19.7158C51.7004 20.3945 52.2657 20.9148 52.944 21.2768C53.6449 21.6161 54.391 21.7858 55.1824 21.7858C56.0868 21.7858 56.9347 21.5709 57.726 21.141C58.54 20.6886 59.094 20.1004 59.3879 19.3765L63.2882 20.4624C62.8586 21.3673 62.2368 22.1704 61.4228 22.8717C60.6314 23.573 59.6931 24.1273 58.6078 24.5345C57.5225 24.9191 56.3242 25.1113 55.0128 25.1113ZM50.3664 14.456H59.6592C59.5688 13.5511 59.3087 12.7706 58.8792 12.1145C58.4722 11.4358 57.9295 10.9155 57.2512 10.5536C56.5729 10.169 55.8155 9.97667 54.9789 9.97667C54.1649 9.97667 53.4188 10.169 52.7405 10.5536C52.0848 10.9155 51.5421 11.4358 51.1125 12.1145C50.7056 12.7706 50.4568 13.5511 50.3664 14.456Z" fill="#2196F3"/>
<path d="M66.8707 19.5122C66.8707 18.3584 67.1873 17.3517 67.8204 16.492C68.4761 15.6098 69.3805 14.9311 70.5336 14.456C71.6867 13.9809 73.0094 13.7434 74.5017 13.7434C75.2478 13.7434 76.0053 13.7999 76.774 13.913C77.5428 14.0262 78.2098 14.2071 78.775 14.456V13.5058C78.775 12.3747 78.4359 11.5037 77.7575 10.8929C77.1018 10.2821 76.1183 9.97667 74.8069 9.97667C73.8347 9.97667 72.9077 10.1463 72.0259 10.4857C71.1441 10.825 70.217 11.3227 69.2448 11.9788L67.7864 8.99258C68.9622 8.2234 70.1605 7.64652 71.3815 7.26193C72.625 6.87734 73.9251 6.68505 75.2817 6.68505C77.8141 6.68505 79.7812 7.31849 81.183 8.58537C82.6074 9.85224 83.3197 11.6621 83.3197 14.0148V19.6819C83.3197 20.1569 83.3988 20.4963 83.5571 20.6999C83.738 20.9035 84.0206 21.0279 84.405 21.0732V24.772C83.998 24.8399 83.6249 24.8964 83.2858 24.9417C82.9692 24.9869 82.6979 25.0095 82.4718 25.0095C81.5674 25.0095 80.8778 24.8059 80.4029 24.3987C79.9507 23.9915 79.6681 23.4938 79.5551 22.9056L79.4533 21.9894C78.6846 22.9848 77.7236 23.754 76.5705 24.2969C75.4174 24.8399 74.2417 25.1113 73.0433 25.1113C71.8676 25.1113 70.8049 24.8738 69.8553 24.3987C68.9283 23.901 68.1934 23.2337 67.6508 22.3966C67.1307 21.5369 66.8707 20.5755 66.8707 19.5122ZM77.9271 20.4284C78.1758 20.1569 78.3793 19.8855 78.5376 19.614C78.6959 19.3425 78.775 19.0937 78.775 18.8674V17.0689C78.2324 16.8427 77.6445 16.673 77.0114 16.5599C76.3783 16.4242 75.7792 16.3563 75.2139 16.3563C74.0382 16.3563 73.0659 16.6165 72.2972 17.1368C71.551 17.6345 71.178 18.3019 71.178 19.1389C71.178 19.5914 71.3023 20.0212 71.551 20.4284C71.7998 20.8356 72.1615 21.1637 72.6363 21.4125C73.1111 21.6614 73.6764 21.7858 74.3321 21.7858C75.0104 21.7858 75.6774 21.6614 76.3331 21.4125C76.9888 21.141 77.5201 20.813 77.9271 20.4284Z" fill="#2196F3"/>
<path d="M99.2334 25.1113C97.8542 25.1113 96.6332 24.8059 95.5705 24.1951C94.5304 23.5617 93.7165 22.7133 93.1286 21.6501V32H88.584V6.99046H92.5521V10.0445C93.2304 9.00389 94.0896 8.18947 95.1296 7.60127C96.1697 6.99045 97.3567 6.68505 98.6907 6.68505C99.8891 6.68505 100.986 6.92259 101.981 7.39767C102.998 7.87275 103.88 8.54012 104.626 9.39979C105.372 10.2368 105.949 11.2096 106.356 12.3181C106.785 13.404 107 14.5804 107 15.8473C107 17.5666 106.661 19.1276 105.983 20.5302C105.327 21.9328 104.411 23.0527 103.235 23.8897C102.082 24.7041 100.748 25.1113 99.2334 25.1113ZM97.7072 21.2428C98.4081 21.2428 99.0412 21.0958 99.6065 20.8017C100.172 20.5076 100.658 20.1117 101.065 19.614C101.494 19.0937 101.811 18.5168 102.014 17.8834C102.241 17.2273 102.354 16.5486 102.354 15.8473C102.354 15.1007 102.229 14.4107 101.981 13.7773C101.754 13.1439 101.415 12.5896 100.963 12.1145C100.511 11.6168 99.9795 11.2322 99.369 10.9608C98.7812 10.6893 98.1368 10.5536 97.4359 10.5536C97.0063 10.5536 96.5654 10.6327 96.1132 10.7911C95.6836 10.9268 95.2653 11.1304 94.8583 11.4019C94.4513 11.6734 94.0895 11.9901 93.773 12.3521C93.4791 12.714 93.2643 13.1099 93.1286 13.5398V17.7137C93.3999 18.3697 93.7617 18.9692 94.2139 19.5122C94.6887 20.0551 95.2314 20.485 95.8418 20.8017C96.4523 21.0958 97.0741 21.2428 97.7072 21.2428Z" fill="#2196F3"/>
</g>
</g>
</svg>
