<svg aria-hidden="true" style="position: absolute; width: 0; height: 0; overflow: hidden;" version="1.1" xmlns="http://www.w3.org/2000/svg" xmlns:xlink="http://www.w3.org/1999/xlink">
    <defs>
        <symbol  id="icon-close" viewBox="0 0 32 32">
            <path d="M23.733 10.304l-1.504-1.504-5.963 5.963-5.963-5.963-1.504 1.504 5.963 5.963-5.963 5.963 1.504 1.504 5.963-5.963 5.963 5.963 1.504-1.504-5.963-5.963 5.963-5.963z"></path>
        </symbol>

        <symbol id="icon-menu" viewBox="0 0 32 32">
            <path d="M6.4 11.733v-2.133h19.2v2.133h-19.2zM6.4 17.067h19.2v-2.133h-19.2v2.133zM6.4 22.4h19.2v-2.133h-19.2v2.133z"></path>
        </symbol>

        <symbol id="icon-telegram" viewBox="0 0 32 32">
            <path d="M29.528 4.193c-0.48-0.407-1.234-0.465-2.013-0.152h-0.001c-0.82 0.329-23.207 9.932-24.118 10.324-0.166 0.058-1.613 0.598-1.464 1.801 0.133 1.085 1.297 1.534 1.439 1.586l5.692 1.949c0.378 1.257 1.77 5.894 2.077 6.885 0.192 0.618 0.505 1.429 1.053 1.596 0.481 0.186 0.96 0.016 1.27-0.227l3.48-3.228 5.617 4.381 0.134 0.080c0.381 0.169 0.747 0.253 1.096 0.253 0.269 0 0.528-0.051 0.775-0.152 0.842-0.346 1.178-1.148 1.213-1.238l4.196-21.809c0.256-1.165-0.1-1.757-0.444-2.049zM14.080 20.48l-1.92 5.12-1.92-6.4 14.72-10.88-10.88 12.16z"></path>
        </symbol>

        <symbol id="icon-person" viewBox="0 0 32 32">
            <path d="M16 16c2.947 0 5.333-2.387 5.333-5.333s-2.387-5.333-5.333-5.333c-2.947 0-5.333 2.387-5.333 5.333s2.387 5.333 5.333 5.333zM16 18.667c-3.56 0-10.667 1.787-10.667 5.333v1.333c0 0.733 0.6 1.333 1.333 1.333h18.667c0.733 0 1.333-0.6 1.333-1.333v-1.333c0-3.547-7.107-5.333-10.667-5.333z"></path>
        </symbol>

        <symbol id="icon-phone" viewBox="0 0 32 32">
            <path d="M24.881 19.774l-3.268-0.373c-0.785-0.090-1.557 0.18-2.11 0.733l-2.367 2.367c-3.641-1.853-6.626-4.825-8.478-8.478l2.38-2.38c0.553-0.553 0.823-1.325 0.733-2.11l-0.373-3.242c-0.154-1.299-1.248-2.277-2.56-2.277h-2.226c-1.454 0-2.663 1.209-2.573 2.663 0.682 10.987 9.469 19.761 20.443 20.443 1.454 0.090 2.663-1.119 2.663-2.573v-2.226c0.013-1.299-0.965-2.393-2.264-2.547z"></path>
        </symbol>
    </defs>
</svg>
